<svg xmlns="http://www.w3.org/2000/svg" viewBox="0 0 1024 1024" class="icon icon-xlg app-logo"><g opacity=".9"><path d="M490.1 400.8h140c16.6 0 30-13.4 30-30v-140c0-16.6-13.4-30-30-30h-140c-16.6 0-30 13.4-30 30v140c0 16.6 13.4 30 30 30zm30-140.1h80v80h-80v-80z"></path><path d="M994.2 0H450.1c-93.8 0-170 76.3-170 170v110.6H169.4C76 280.6 0 356.6 0 450v404.6C0 948 76 1024 169.4 1024h584.7c72.1 0 140-28.1 191-79.1s79.1-118.8 79.1-191V30c0-16.6-13.4-30-30-30zM169.4 340.6H280v180.2H60V450c0-60.3 49.1-109.4 109.4-109.4zM170 964h-.6C109.1 964 60 914.9 60 854.6V580.8h220.1v273.8c0 60.3-49.1 109.4-109.4 109.4h-.7zm794.2-210c0 115.8-94.2 210.1-210.1 210.1H299.9c25-29.5 40.2-67.7 40.2-109.4V170c0-60.7 49.4-110 110-110h514.1v694z"></path><path d="M490.1 580.8h323.5c16.6 0 30-13.4 30-30s-13.4-30-30-30H490.1c-16.6 0-30 13.4-30 30s13.4 30 30 30zm0 180.1h323.5c16.6 0 30-13.4 30-30s-13.4-30-30-30H490.1c-16.6 0-30 13.4-30 30s13.4 30 30 30z"></path></g></svg>